<svg width="30" height="28" viewBox="0 0 30 28" fill="none" xmlns="http://www.w3.org/2000/svg">
<path d="M15 0C6.71625 0 0 6.36665 0 14.2192C0 20.8821 4.84 26.4572 11.365 28C11.295 27.808 11.25 27.5853 11.25 27.3092V24.8789C10.6413 24.8789 9.62125 24.8789 9.365 24.8789C8.33875 24.8789 7.42625 24.4606 6.98375 23.6833C6.4925 22.8195 6.4075 21.4983 5.19 20.6901C4.82875 20.4212 5.10375 20.1143 5.52 20.1557C6.28875 20.3619 6.92625 20.862 7.52625 21.6037C8.12375 22.3467 8.405 22.5149 9.52125 22.5149C10.0625 22.5149 10.8725 22.4853 11.635 22.3716C12.045 21.3845 12.7537 20.4757 13.62 20.0467C8.625 19.5597 6.24125 17.2041 6.24125 14.0059C6.24125 12.629 6.86 11.2972 7.91125 10.175C7.56625 9.06119 7.1325 6.78967 8.04375 5.92467C10.2913 5.92467 11.65 7.30631 11.9763 7.67956C13.0963 7.31579 14.3262 7.10961 15.6187 7.10961C16.9137 7.10961 18.1487 7.31579 19.2712 7.68193C19.5937 7.31105 20.9538 5.92467 23.2063 5.92467C24.1213 6.79086 23.6825 9.07186 23.3337 10.1833C24.3787 11.3031 24.9938 12.6314 24.9938 14.0059C24.9938 17.2017 22.6137 19.5562 17.6262 20.0455C18.9987 20.7245 20 22.6322 20 24.0696V27.3092C20 27.4324 19.9713 27.5213 19.9563 27.6267C25.8013 25.6846 30 20.4235 30 14.2192C30 6.36665 23.2837 0 15 0Z" fill="#A4A4A4"/>
</svg>
