<svg width="24" height="23" viewBox="0 0 24 23" fill="none" xmlns="http://www.w3.org/2000/svg">
<path d="M21.8182 0H2.18182C0.976364 0 0 0.935682 0 2.09091V20.9091C0 22.0643 0.976364 23 2.18182 23H21.8182C23.0236 23 24 22.0643 24 20.9091V2.09091C24 0.935682 23.0236 0 21.8182 0ZM7.58618 18.8182H4.368V8.89473H7.58618V18.8182ZM5.94436 7.47605C4.90691 7.47605 4.068 6.67 4.068 5.67786C4.068 4.68573 4.908 3.88073 5.94436 3.88073C6.97855 3.88073 7.81964 4.68677 7.81964 5.67786C7.81964 6.67 6.97855 7.47605 5.94436 7.47605ZM19.6407 18.8182H16.4247V13.9924C16.4247 12.8413 16.4029 11.361 14.7524 11.361C13.0778 11.361 12.8204 12.6145 12.8204 13.9087V18.8182H9.60436V8.89473H12.6916V10.2507H12.7353C13.1651 9.47077 14.2145 8.648 15.78 8.648C19.0385 8.648 19.6407 10.7034 19.6407 13.3755V18.8182Z" fill="#A4A4A4"/>
</svg>
