<svg width="30" height="23" viewBox="0 0 30 23" fill="none" xmlns="http://www.w3.org/2000/svg">
<path d="M30 2.72247C28.8958 3.1851 27.7097 3.49643 26.4648 3.63685C27.7362 2.91841 28.7112 1.78087 29.1704 0.424535C27.982 1.08964 26.6644 1.57296 25.2613 1.83421C24.1387 0.705381 22.5395 0 20.7696 0C17.3705 0 14.6152 2.60055 14.6152 5.80633C14.6152 6.26135 14.6706 6.70547 14.7744 7.12892C9.65963 6.88726 5.12519 4.57518 2.08838 1.06134C1.55994 1.91912 1.25649 2.91623 1.25649 3.98192C1.25649 5.99574 2.34222 7.77334 3.99331 8.814C2.98489 8.78352 2.03531 8.52227 1.20572 8.08794C1.20572 8.11297 1.20572 8.13583 1.20572 8.16087C1.20572 10.9748 3.32641 13.3217 6.14284 13.854C5.62709 13.9868 5.0825 14.0576 4.5206 14.0576C4.12484 14.0576 3.73832 14.0205 3.36333 13.9541C4.14676 16.2608 6.41975 17.9404 9.11273 17.9872C7.00704 19.5449 4.35329 20.4735 1.46879 20.4735C0.972655 20.4735 0.482289 20.4463 0 20.3918C2.72413 22.0388 5.95823 23 9.43464 23C20.7557 23 26.9447 14.1523 26.9447 6.47906C26.9447 6.2276 26.939 5.97723 26.9274 5.72796C28.1308 4.90828 29.175 3.88613 30 2.72247Z" fill="#A4A4A4"/>
</svg>
