<svg width="74" height="64" viewBox="0 0 74 64" fill="none" xmlns="http://www.w3.org/2000/svg">
<path fill-rule="evenodd" clip-rule="evenodd" d="M73.8491 0H0V59C0 61.7614 2.23858 64 5 64H68.8491C71.6106 64 73.8491 61.7614 73.8491 59V0ZM22.2298 50.48C22.8165 51.0667 23.6431 51.36 24.7098 51.36C25.8031 51.36 26.6298 51.0667 27.1898 50.48C27.7498 49.8933 28.0298 49.0667 28.0298 48V35.7958L33.5898 45.44C33.9365 46.0267 34.3231 46.4667 34.7498 46.76C35.1765 47.0533 35.7231 47.2 36.3898 47.2C37.0831 47.2 37.6298 47.0533 38.0298 46.76C38.4565 46.4667 38.8565 46.0267 39.2298 45.44L44.8298 35.7009V48C44.8298 49.0667 45.1098 49.8933 45.6698 50.48C46.2565 51.0667 47.0831 51.36 48.1498 51.36C49.2431 51.36 50.0698 51.0667 50.6298 50.48C51.1898 49.8933 51.4698 49.0667 51.4698 48V25.8C51.4698 24.7067 51.1765 23.88 50.5898 23.32C50.0298 22.7333 49.2165 22.44 48.1498 22.44C47.2165 22.44 46.4698 22.6267 45.9098 23C45.3765 23.3467 44.8698 23.9333 44.3898 24.76L36.5282 38.9403L28.6298 24.76C28.1765 23.9333 27.6698 23.3467 27.1098 23C26.5765 22.6267 25.8431 22.44 24.9098 22.44C23.7898 22.44 22.9231 22.7333 22.3098 23.32C21.6965 23.88 21.3898 24.7067 21.3898 25.8V48C21.3898 49.0667 21.6698 49.8933 22.2298 50.48Z" fill="#F4F4F5"/>
</svg>
